<svg id="Layer_1" height="512" viewBox="0 0 512 512" width="512" xmlns="http://www.w3.org/2000/svg" data-name="Layer 1"><g fill="rgb(0,0,0)"><path d="m187 344.51-11.78 11.77v-64.91a10 10 0 0 0 -20 0v64.91l-11.77-11.77a10 10 0 0 0 -14.14 14.14l26.8 26.8a12.88 12.88 0 0 0 18.23 0l26.8-26.8a10 10 0 1 0 -14.14-14.14z"/><path d="m174.38 126.55a12.88 12.88 0 0 0 -18.23 0l-26.8 26.8a10 10 0 0 0 14.14 14.14l11.77-11.77v64.91a10 10 0 0 0 20 0v-64.91l11.74 11.77a10 10 0 1 0 14.14-14.14z"/><path d="m375.58 141.86h-145.7a10 10 0 0 0 0 20h145.7a10 10 0 1 0 0-20z"/><path d="m345.84 210.63h-116a10 10 0 0 0 0 20h116a10 10 0 1 0 0-20z"/><path d="m316.11 279.39h-86.23a10 10 0 0 0 0 20h86.23a10 10 0 0 0 0-20z"/><path d="m286.37 348.16h-56.49a10 10 0 1 0 0 20h56.49a10 10 0 0 0 0-20z"/></g></svg>